<svg width="800px" height="800px" viewBox="0 0 32 32" version="1.1" xmlns="http://www.w3.org/2000/svg" fill="#ffffff">

<g id="SVGRepo_bgCarrier" stroke-width="0"/>

<g id="SVGRepo_tracerCarrier" stroke-linecap="round" stroke-linejoin="round"/>

<g id="SVGRepo_iconCarrier"> <g id="Page-1" stroke="none" stroke-width="1" fill="none" fill-rule="evenodd" > <g id="Icon-Set-Filled" transform="translate(-362.000000, -153.000000)" fill="#ffffff"> <path d="M390,157 L376,157 C376,154.791 374.209,153 372,153 L366,153 C363.791,153 362,154.791 362,157 L362,163 L394,163 L394,161 C394,158.791 392.209,157 390,157 L390,157 Z M362,181 C362,183.209 363.791,185 366,185 L390,185 C392.209,185 394,183.209 394,181 L394,165 L362,165 L362,181 L362,181 Z" id="folder-2" > </path> </g> </g> </g>

</svg>